# xmcd CD database file
#
# Track frame offsets:
#	150
#	14130
#	27260
#	39690
#	50570
#	64112
#	74607
#	84255
#	98007
#	114585
#	125845
#	144877
#	155797
#	170240
#	179732
#	191137
#	202522
#	213957
#	229572
#	242795
#	254990
#	268842
#	284082
#	296937
#	311562
#	327100
#	337397
#
# Disc length: 4606 seconds
#
# Revision: 0
# Processed by: cddbd v1.5.2PL0 Copyright (c) Steve Scherf et al.
# Submitted via: CDex 1.70beta2
#
DISCID=bb11fc1b
DTITLE=Rosemary Clooney - Many A Wonderful Moment
DYEAR=1963
DGENRE=Jazz
TTITLE0=How Are Things In Glocca Morra?
TTITLE1=Look To The Rainbow
TTITLE2=It Came Upon A Midnight Clear
TTITLE3=All Alone
TTITLE4=Miss Otis Regrets
TTITLE5=Hello Faithless
TTITLE6=Baby, The Ball Is Over
TTITLE7=Thanks For Nothing (At All)
TTITLE8=Black Coffee
TTITLE9=Just One Of Those Things
TTITLE10=The Man That Got Away
TTITLE11=A Good Man Is Hard To Find
TTITLE12=I Got A Right To Sing The Blues 
TTITLE13=Careless Love
TTITLE14=The Rules Of The Road
TTITLE15=That Travelin' Two-Beat
TTITLE16=The Poor People Of Paris
TTITLE17=Adios Senorita
TTITLE18=Roamin' In The Gloamin'
TTITLE19=Come To The Mardi Gras
TTITLE20=Cia, Cia, Bambina
TTITLE21=The Daughter Of Molly Malone
TTITLE22=I Get Ideas
TTITLE23=Hear That Band
TTITLE24=The New Vienna Woods
TTITLE25=Knees Up, Mother Brown
TTITLE26=That Travelin' Two-Beat (Reprise)
EXTD=YEAR: 1963
EXTT0=
EXTT1=
EXTT2=
EXTT3=
EXTT4=
EXTT5=
EXTT6=
EXTT7=
EXTT8=
EXTT9=
EXTT10=
EXTT11=
EXTT12=
EXTT13=
EXTT14=
EXTT15=
EXTT16=
EXTT17=
EXTT18=
EXTT19=
EXTT20=
EXTT21=
EXTT22=
EXTT23=
EXTT24=
EXTT25=
EXTT26=
PLAYORDER=
